<?xml version="1.0" encoding="utf-8"?>
<!-- Generator: Adobe Illustrator 25.4.1, SVG Export Plug-In . SVG Version: 6.00 Build 0)  -->
<svg version="1.1" id="Layer_1" xmlns="http://www.w3.org/2000/svg" xmlns:xlink="http://www.w3.org/1999/xlink" x="0px" y="0px"
	 viewBox="0 0 680 400" style="enable-background:new 0 0 680 400;" xml:space="preserve">
<style type="text/css">
	.st0{fill:#d9dee6;}
	.st1{fill:#9aa5b5;}
	.st2{fill:#8e9bb0;}
	.st3{fill:#bfaee6;}
</style>
<defs><linearGradient id="gild" x1="0" y1="0" x2="0.35" y2="1">
<stop offset="0" stop-color="#8a5a00"/><stop offset="0.3" stop-color="#d4a017"/>
<stop offset="0.5" stop-color="#f5d061"/><stop offset="0.7" stop-color="#c8901c"/>
<stop offset="1" stop-color="#7a4f00"/></linearGradient></defs>
<g fill="#8e9bb0">
	<g>
		<path class="st0" d="M108.95,293.78v2.69c0,13.69-1.41,18.43-6.65,23.04c-2.94,2.56-7.55,4.73-11.9,5.5
			c-2.82,0.51-9.85,0.77-18.56,0.77c-16.25,0-20.86-1.02-27.13-6.01c-4.22-3.33-7.42-9.34-8.19-15.61
			c-0.64-5.5-1.15-16.76-1.15-28.67c0-15.87,1.92-22.91,7.68-28.41c6.65-6.4,13.18-7.94,33.53-7.94c11.9,0,15.87,0.51,20.6,2.69
			c5.89,2.69,9.09,7.17,10.37,14.59c0.51,2.82,0.64,4.99,0.9,12.93H88.86c-0.13-6.14-0.38-7.42-1.41-9.34
			c-1.66-2.94-4.99-3.84-13.95-3.84c-8.45,0-12.41,0.9-14.72,3.2c-2.69,2.82-3.07,5.63-3.07,23.8c0,14.72,0.38,17.79,2.3,21.12
			c1.92,3.46,5.76,4.61,14.85,4.61c9.6,0,13.82-1.28,15.48-4.74c1.02-2.05,1.15-3.33,1.15-8.7v-1.66H108.95z"/>
		<path class="st0" d="M136.85,309.65l-4.74,15.48h-20.48l27-85.36h29.56l27.39,85.36h-20.22l-4.86-15.48H136.85z M153.74,254.62
			l-12.54,40.57h25.21L153.74,254.62z"/>
		<path class="st0" d="M202.24,239.78h42.49c8.83,0,14.59,0.9,18.56,2.94c7.55,3.71,10.49,10.24,10.49,22.91
			c0,17.79-2.69,22.14-15.74,25.08v0.64c10.11,0.64,15.1,6.27,14.97,16.77v17.02h-19.96v-13.31c0.26-8.57-3.33-12.41-11.13-12.16
			h-19.96v25.47h-19.71V239.78z M242.42,282.9c9.21,0,11.26-2.56,11.26-13.95c0-10.24-1.79-12.29-11.26-12.29h-20.48v26.24H242.42z"
			/>
		<path class="st0" d="M285.17,239.78h43.38c23.03,0,32.63,9.85,32.63,33.66c0,24.44-0.64,31.61-3.33,37.5
			c-4.73,9.98-13.44,14.2-29.69,14.2h-43V239.78z M325.61,308.24c6.78,0,10.24-1.41,12.54-4.99c2.3-3.58,2.94-8.32,2.94-21.5
			c0-12.28-0.64-17.15-2.82-20.35c-2.05-3.2-5.5-4.48-12.16-4.48h-21.24v51.32H325.61z"/>
		<path class="st0" d="M392.4,325.13H372.7v-85.36h19.71V325.13z"/>
		<path class="st0" d="M489.15,325.13h-33.27l-18.81-41.34c-2.3-5.12-3.46-7.94-8.19-20.35l-2.69-6.78h-0.77
			c0.51,11.77,0.77,20.73,0.77,27.13v41.34h-19.32v-85.36h33.02l17.79,39.54c3.97,8.83,4.22,9.47,8.96,21.37l2.94,7.04h0.77
			l-0.26-6.65c-0.51-9.6-0.51-10.75-0.51-19.84v-41.46h19.58V325.13z"/>
		<path class="st0" d="M521.78,309.65l-4.74,15.48h-20.48l27-85.36h29.56l27.39,85.36H560.3l-4.86-15.48H521.78z M538.67,254.62
			l-12.54,40.57h25.21L538.67,254.62z"/>
		<path class="st0" d="M606.88,308.11h37.75v17.02h-57.46v-85.36h19.71V308.11z"/>
	</g>
	<g>
		<path class="st1" d="M35.52,338.03h15.75c7.46,0,10.04,2.49,10.04,9.51c0,6.24-1.22,8.09-5.75,8.92v0.15
			c3.56,0.19,5.41,2.39,5.36,6.29v7.66H55.9v-6.58c0.1-3.85-1.61-5.46-5.51-5.31h-9.9v11.9h-4.97V338.03z M50.14,354.36
			c2.19,0,3.61-0.29,4.54-0.97c1.27-0.88,1.61-1.95,1.61-4.78c0-3.8-0.34-4.92-1.76-5.71c-0.73-0.39-1.95-0.58-3.56-0.58H40.49
			v12.04H50.14z"/>
		<path class="st1" d="M90.82,338.81c2.83,1.22,4.39,3.61,4.97,7.56c0.24,1.46,0.29,2.97,0.29,7.31c0,6.53-0.1,7.85-0.59,10.24
			c-0.63,2.83-2.19,4.78-4.58,5.8c-2.1,0.88-4.1,1.12-8.78,1.12c-5.36,0-7.22-0.24-9.36-1.17c-2.34-1.02-3.8-2.93-4.44-5.71
			c-0.54-2.29-0.63-3.56-0.63-9.65c0-7.85,0.29-9.95,1.76-12.39c1.17-1.95,3.17-3.27,5.9-3.8c1.17-0.24,3.85-0.39,6.73-0.39
			C86.87,337.73,88.91,337.98,90.82,338.81z M91.06,354.22v-4.53c0-3.56-0.78-5.9-2.24-6.78c-1.22-0.73-2.58-0.88-7.46-0.88
			c-5.7,0-7.12,0.54-8.05,3.17c-0.54,1.61-0.59,2.2-0.59,9.12c0,6.05,0,6.05,0.24,7.7c0.34,2.1,1.12,3.36,2.54,3.9
			c1.22,0.49,2.54,0.63,6.44,0.63c4.44,0,5.9-0.2,7.02-1.02c1.32-0.93,2.1-3.41,2.1-6.78V354.22z"/>
		<path class="st1" d="M125.54,338.81c2.83,1.22,4.39,3.61,4.97,7.56c0.24,1.46,0.29,2.97,0.29,7.31c0,6.53-0.1,7.85-0.59,10.24
			c-0.63,2.83-2.19,4.78-4.58,5.8c-2.1,0.88-4.1,1.12-8.78,1.12c-5.36,0-7.22-0.24-9.36-1.17c-2.34-1.02-3.8-2.93-4.44-5.71
			c-0.54-2.29-0.63-3.56-0.63-9.65c0-7.85,0.29-9.95,1.76-12.39c1.17-1.95,3.17-3.27,5.9-3.8c1.17-0.24,3.85-0.39,6.73-0.39
			C121.59,337.73,123.64,337.98,125.54,338.81z M125.78,354.22v-4.53c0-3.56-0.78-5.9-2.24-6.78c-1.22-0.73-2.58-0.88-7.46-0.88
			c-5.7,0-7.12,0.54-8.05,3.17c-0.54,1.61-0.59,2.2-0.59,9.12c0,6.05,0,6.05,0.24,7.7c0.34,2.1,1.12,3.36,2.54,3.9
			c1.22,0.49,2.54,0.63,6.44,0.63c4.44,0,5.9-0.2,7.02-1.02c1.32-0.93,2.1-3.41,2.1-6.78V354.22z"/>
		<path class="st1" d="M143.15,352.27h15.16v4.15h-15.16v14.14h-4.97v-32.52h20.77v4.19h-15.8V352.27z"/>
		<path class="st1" d="M170.17,370.55h-4.97v-32.52h4.97V370.55z"/>
		<path class="st1" d="M207.57,370.55h-8.34l-11.41-19.89c-0.59-1.07-1.17-2.24-3.27-6.29l-1.02-2.05h-0.19l0.05,1.66l0.05,1.71
			c0.05,0.1,0.05,1.8,0.05,3.41v21.46h-4.92v-32.52h8.29l10.09,17.9c1.12,2,1.71,3.07,4.24,7.8l1.37,2.58h0.15v-1.66l-0.05-1.66
			c-0.05-0.24-0.05-1.85-0.05-3.36v-21.6h4.97V370.55z"/>
		<path class="st1" d="M242.39,353.83c0.1,1.56,0.1,2,0.1,3.95c0,5.9-0.2,7.46-1.22,9.26c-0.88,1.56-2.24,2.63-4.19,3.17
			c-1.41,0.44-4.15,0.63-8.48,0.63c-4.58,0-6.48-0.24-8.44-1.02c-2.54-1.02-3.9-2.58-4.73-5.41c-0.49-1.56-0.63-3.32-0.63-7.02
			c0-9.12,0.05-9.95,0.59-12.48c0.78-3.56,2.73-5.71,5.95-6.58c1.46-0.44,3.46-0.59,7.56-0.59c6.97,0,8.39,0.19,10.63,1.56
			c1.22,0.78,2.19,2.24,2.54,3.85c0.24,1.27,0.34,2.19,0.34,4.49h-4.97c-0.15-5.27-0.78-5.66-8.97-5.66c-5.12,0-6.92,0.54-7.8,2.44
			c-0.68,1.51-0.83,3.32-0.83,9.75c0,6.92,0.15,8.53,0.83,10c0.88,1.9,2.78,2.44,8.63,2.44c3.9,0,5.66-0.24,6.73-1.02
			c1.02-0.68,1.51-2.78,1.51-6.29c0-0.24,0-0.88-0.05-1.56h-9.22v-3.9H242.39z"/>
		<path class="st1" d="M290.28,355.53v0.97c0,3.46-0.1,4.88-0.49,6.68l5.17,4.34l-2.44,3.07l-4.39-3.66
			c-0.73,1.37-1.46,2.15-2.58,2.68c-1.9,0.98-3.56,1.22-8.29,1.22c-6.29,0-8.83-0.44-10.73-1.95c-1.8-1.41-2.68-4.14-2.68-8.44
			c0-3.85,0.78-6,2.58-7.27c0.78-0.54,1.37-0.73,3.85-1.17c-2.39-2.05-2.83-2.93-2.83-5.75c0-6.14,2.29-7.95,10.09-7.95
			c7.51,0,9.8,1.9,9.8,8.05c0,0.29,0,1.12-0.05,1.85h-4.54v-1.07c-0.05-4.34-0.59-4.88-5.22-4.88c-4.39,0-5.36,0.68-5.36,3.66
			c0,2.19,0.29,2.78,2.58,4.63l11.07,9.36v-2.1v-2.29H290.28z M273.07,354.41c-3.75,0.73-4.44,1.66-4.44,5.9
			c0,2.68,0.34,4.34,1.12,5.31c0.83,0.97,2.19,1.22,6.88,1.22c5.75,0,6.83-0.34,8.09-2.73L273.07,354.41z"/>
		<path class="st1" d="M315.21,338.03h15.75c7.46,0,10.04,2.49,10.04,9.51c0,6.24-1.22,8.09-5.75,8.92v0.15
			c3.56,0.19,5.41,2.39,5.36,6.29v7.66h-5.02v-6.58c0.1-3.85-1.61-5.46-5.51-5.31h-9.9v11.9h-4.97V338.03z M329.83,354.36
			c2.19,0,3.61-0.29,4.54-0.97c1.27-0.88,1.61-1.95,1.61-4.78c0-3.8-0.34-4.92-1.76-5.71c-0.73-0.39-1.95-0.58-3.56-0.58h-10.48
			v12.04H329.83z"/>
		<path class="st1" d="M353.24,351.92h15.85v3.85h-15.85v10.58h16.68v4.19h-21.65v-32.52h21.55v4.19h-16.58V351.92z"/>
		<path class="st1" d="M406.01,370.55h-8.34l-11.41-19.89c-0.59-1.07-1.17-2.24-3.27-6.29l-1.02-2.05h-0.19l0.05,1.66l0.05,1.71
			c0.05,0.1,0.05,1.8,0.05,3.41v21.46H377v-32.52h8.29l10.09,17.9c1.12,2,1.71,3.07,4.24,7.8l1.37,2.58h0.15v-1.66l-0.05-1.66
			c-0.05-0.24-0.05-1.85-0.05-3.36v-21.6h4.97V370.55z"/>
		<path class="st1" d="M436.34,338.81c2.83,1.22,4.39,3.61,4.97,7.56c0.24,1.46,0.29,2.97,0.29,7.31c0,6.53-0.1,7.85-0.59,10.24
			c-0.63,2.83-2.19,4.78-4.58,5.8c-2.1,0.88-4.1,1.12-8.78,1.12c-5.36,0-7.22-0.24-9.36-1.17c-2.34-1.02-3.8-2.93-4.44-5.71
			c-0.54-2.29-0.63-3.56-0.63-9.65c0-7.85,0.29-9.95,1.76-12.39c1.17-1.95,3.17-3.27,5.9-3.8c1.17-0.24,3.85-0.39,6.73-0.39
			C432.39,337.73,434.44,337.98,436.34,338.81z M436.59,354.22v-4.53c0-3.56-0.78-5.9-2.24-6.78c-1.22-0.73-2.58-0.88-7.46-0.88
			c-5.7,0-7.12,0.54-8.05,3.17c-0.54,1.61-0.59,2.2-0.59,9.12c0,6.05,0,6.05,0.24,7.7c0.34,2.1,1.12,3.36,2.54,3.9
			c1.22,0.49,2.54,0.63,6.44,0.63c4.44,0,5.9-0.2,7.02-1.02c1.32-0.93,2.1-3.41,2.1-6.78V354.22z"/>
		<path class="st1" d="M474.92,338.03L464,370.55h-7.46l-10.97-32.52h5.22l7.31,21.36c0.58,1.8,1.51,4.92,2.14,7.02h0.1
			c0.83-2.98,1.51-5.17,2.1-6.97l7.22-21.41H474.92z"/>
		<path class="st1" d="M482.04,364.02l-2.24,6.53h-5.27l11.36-32.52h7.27l11.51,32.52h-5.17l-2.29-6.53H482.04z M489.6,341.93
			l-6.29,18.29h12.68L489.6,341.93z"/>
		<path class="st1" d="M519.2,370.55h-4.97v-28.04h-9.95v-4.49h25.01v4.54l-10.09-0.05V370.55z"/>
		<path class="st1" d="M540.22,370.55h-4.97v-32.52h4.97V370.55z"/>
		<path class="st1" d="M570.7,338.81c2.83,1.22,4.39,3.61,4.97,7.56c0.24,1.46,0.29,2.97,0.29,7.31c0,6.53-0.1,7.85-0.59,10.24
			c-0.63,2.83-2.19,4.78-4.58,5.8c-2.1,0.88-4.1,1.12-8.78,1.12c-5.36,0-7.22-0.24-9.36-1.17c-2.34-1.02-3.8-2.93-4.44-5.71
			c-0.54-2.29-0.63-3.56-0.63-9.65c0-7.85,0.29-9.95,1.76-12.39c1.17-1.95,3.17-3.27,5.9-3.8c1.17-0.24,3.85-0.39,6.73-0.39
			C566.75,337.73,568.8,337.98,570.7,338.81z M570.95,354.22v-4.53c0-3.56-0.78-5.9-2.24-6.78c-1.22-0.73-2.58-0.88-7.46-0.88
			c-5.7,0-7.12,0.54-8.05,3.17c-0.54,1.61-0.59,2.2-0.59,9.12c0,6.05,0,6.05,0.24,7.7c0.34,2.1,1.12,3.36,2.54,3.9
			c1.22,0.49,2.54,0.63,6.44,0.63c4.44,0,5.9-0.2,7.02-1.02c1.32-0.93,2.1-3.41,2.1-6.78V354.22z"/>
		<path class="st1" d="M612.35,370.55h-8.34l-11.41-19.89c-0.59-1.07-1.17-2.24-3.27-6.29l-1.02-2.05h-0.19l0.05,1.66l0.05,1.71
			c0.05,0.1,0.05,1.8,0.05,3.41v21.46h-4.92v-32.52h8.29l10.09,17.9c1.12,2,1.71,3.07,4.24,7.8l1.37,2.58h0.15v-1.66l-0.05-1.66
			c-0.05-0.24-0.05-1.85-0.05-3.36v-21.6h4.97V370.55z"/>
		<path class="st1" d="M639.08,347.19c0-2.19-0.15-2.97-0.63-3.75c-0.78-1.22-2.19-1.61-6.09-1.61c-6.73,0-8,0.78-8,5.07
			c0,2.58,0.63,3.85,2.24,4.39c0.93,0.34,1.37,0.39,6.44,0.63c5.75,0.29,7.56,0.63,9.12,1.76c1.8,1.37,2.49,3.36,2.49,7.27
			c0,4.73-0.83,7.02-2.97,8.39c-1.9,1.17-4.24,1.51-10.48,1.51c-5.12,0-6.92-0.29-8.92-1.46c-1.22-0.73-2.29-2.29-2.63-3.95
			c-0.29-1.46-0.34-2.39-0.39-5.07h4.88c0,2.93,0.15,3.66,0.73,4.68c0.83,1.46,1.71,1.66,7.17,1.66c6.88,0,7.7-0.63,7.7-5.8
			c0-2.44-0.54-3.56-1.9-4.1c-0.88-0.34-0.88-0.34-6.53-0.68c-5.9-0.29-6.58-0.44-8.24-1.22c-2.58-1.27-3.66-3.56-3.66-7.85
			c0-3.75,0.78-6.14,2.49-7.41c1.95-1.46,4.39-1.9,10.19-1.9c6.44,0,8.97,0.68,10.53,2.88c0.93,1.37,1.37,3.12,1.37,5.61v0.97
			H639.08z"/>
	</g>
	<g>
		<g>
			<g>
				<polygon class="st3" points="396.61,226.23 393.03,197.42 383.01,200.52 389.26,225.71 				"/>
				<polygon class="st3" points="416.12,227.63 412.6,199.33 402.58,202.43 408.68,227.1 				"/>
			</g>
			<path class="st3" d="M445.96,140.46c0,0-2.7-5.5-10.35-6.24c0,0,2.42-5.25-1.78-9.22c-2.87-2.72-30.72-26.72-30.72-26.72
				l-0.63,11.53l11.56,14.06l-10.63-5.34c0,0-5.26,12.62-14.79,24.72c3.72,4.69,3.23,11.2,3.23,11.2s-2.51-4.9-6.75-6.97
				c0,0-9.35-5.06-20.42,2.83c-11.07,7.89-56.04,49.07-56.04,49.07l73.54-17.3l-50.72,19.72l-39.01,26.19l4.23,0.3
				c5.24,0.38,10.46-0.91,14.92-3.69l29.19-18.15l-25.71,23.16h0c6.21,0.45,12.35-1.44,17.22-5.31c7.57-6,18.73-14.82,23.37-18.26
				c6.27-4.65,12.31-5.11,17.14-2.45c7.08,3.91,11.22,6.94,21.96,7.87c0.01-0.01-0.01,0.01,0,0l-1.09-9.1l6.07,9.16
				c14.05-0.69,29.77-9.07,33.52-32.85c2.78-17.67-2.06-29.65-2.06-29.65S437.93,142.75,445.96,140.46z M423.78,138.79
				c-2.23-0.22-3.85-2.2-3.64-4.42c0.22-2.23,2.2-3.86,4.42-3.64c2.23,0.22,3.86,2.2,3.64,4.43
				C427.99,137.38,426.01,139.01,423.78,138.79z"/>
		</g>
		<polygon points="402.3,29.16 296.93,134.53 315.44,153.16 402.3,66.3 563.98,227.99 601.13,227.99 		"/>
		<g>
			<polygon class="st2" points="402.3,84.15 540.51,222.36 345.27,223.22 339.17,227.99 554.6,227.99 402.3,75.68 320.12,157.86 
				324.34,162.11 			"/>
		</g>
		<rect x="203.17" y="196.67" width="23.13" height="23.13"/>
		<rect x="232.5" y="196.67" width="23.13" height="23.13"/>
		<polygon points="149.48,175.54 122.25,192.33 122.25,138.81 149.48,138.81 		"/>
		<rect x="116.94" y="124.81" width="37.86" height="7.98"/>
		<path d="M229.4,160.73L229.4,160.73c-14.38,0-26.03,11.65-26.03,26.03v3.71h52.06v-3.71C255.43,172.38,243.77,160.73,229.4,160.73
			z"/>
		<polygon points="587.97,214.83 631.93,227.99 601.13,227.99 		"/>
		<g>
			<path d="M311.39,186.25c4.95-4.43,10.1-9.01,15.13-13.45L229.4,75.68L89.56,215.52l0,0l-12.46,12.46h28.58L229.4,104.26
				L311.39,186.25z"/>
			<path class="st2" d="M229.4,118l74.75,74.75c1.12-1.01,2.27-2.04,3.43-3.09l-78.19-78.19L112.89,227.99h6.52L229.4,118z"/>
			<polygon points="89.56,215.52 48.22,227.99 77.09,227.99 			"/>
		</g>
		<polygon class="st2" points="229.4,118 119.41,227.99 122.25,228.14 229.4,120.99 302.65,194.25 304.15,192.75 		"/>
	</g>
</g>
</svg>
